<svg version="1" xmlns="http://www.w3.org/2000/svg" width="404" height="404" viewBox="0 0 303.000000 303.000000"><path d="M0 151v151h303V0H0v151zm297-.5V296H6V5h291v145.5z"/><path d="M148.5 25.8l-11 5.7-15.6 39c-8.6 21.4-22 55.4-29.9 75.5-40.6 103.6-41.8 106.3-49.8 114.7-6 6.2-10.4 8.2-19.9 9.1l-7.8.7-.9 4.3c-.5 2.6-.5 4.7 0 5.2s9.6.3 21.6-.5c17.5-1.2 24.1-1.2 43 0 13.2.8 22.7 1 23.2.5s.5-2.6 0-5.2l-.9-4.2-9.5-1.2c-8.6-1.1-9.6-1.4-12.2-4.3-2.8-3.2-3.4-5.9-2.8-14.6.4-6.5 3.2-15.7 12.7-41.5 5-13.5 10.2-27.7 11.6-31.5l2.5-7h86.4l12.4 34.5c6.8 19 12.9 36.8 13.5 39.6.6 2.8 1 8.1.7 11.8-.6 9.6-2.7 11.5-14.5 12.9-4.8.6-9 1.2-9.1 1.3-.9.7-2.2 8.8-1.5 9.5.5.5 12.1.1 25.8-.7 24.3-1.4 37.3-1.2 63.8 1.2l6.7.6v-3.9c0-5.9-1.4-7-9.8-7.6-17-1.3-23.7-8.8-36.4-40.5-2.8-7-6.3-16.5-7.9-21.2-1.6-4.7-17.4-48.9-35.1-98.2L165.5 20l-3 .1c-1.7 0-7.9 2.5-14 5.7zm17.3 81.4l16.9 45.8h-36.3c-20 0-36.4-.2-36.4-.5s8.2-22.4 18.2-49.1c18-48.2 18.1-48.6 19.4-45.3.8 1.9 9 24 18.2 49.1z"/></svg>